P1
# CREATOR: GIMP PNM Filter Version 1.1
128 64
1111111111111111111111111111111111111111111111111111111111111111111111
1111111111111111111111111111111111111111111111111111111111111111111111
1111111111111111111111111111111111111111111111111111111111111111111111
1111111111111111111111111111111111111111111111111111111111111111111111
1111111111111111111111111111111111111111111111111111111111111111111111
1111111111111111111111111111111111111111111111111111111111111111111111
1111111111111111111111111111111111111111111111111111111111111111111111
1111111111111111111111111111111111111111111111111111111111111111111111
1111111111111111111111111111111111111111111111111111111111111111111111
1111111111111111111111111111111111111111111111111111111111111100001111
1111111111111111111111111111111111111111110011111111111111111111111111
1111111111111111111111111111110011111111111111110000000011111111111111
1111111111111111111111111111110011111111111111111111111111111111111111
1111111111111111100001111111111111100000000001111111111111111111111111
1111111111111111110011111111111111111111111111111111111111111111111111
1111110001111111111111000011110000111111111111111111111111111111111111
1111110011111111111111111111111111111111111111111111111111111111000111
1111111110000111111000011111111111111111111111111111111111111111001111
1111111111111111111111111111111111111111111111111111100111111111110000
1111111100011111111111111111111111100111111111111111001111111111111111
1111111111111111111111111111111111111111100111111111110001111111111000
1111110001111111111111100111111111111110001111111111111111111111111111
1111111111111111111111111111000111111111100001111111111000111111000111
1111111111100011111110011110001111111111111111111111111111111111111111
1111111111111111000111111111100011111111111100011111001111111111111110
0001111110001100011111111111111111111111111111111111111111111111110111
1111000111111111100011111111111100011111001111111111111111000011111000
1000111111111111111111111111111111111111111111111111000111111000111111
1111100111111111111100011111001111111111111111100001111000000011111111
1111111111111111111111111111111111111111100011110000111111111100011111
1111111100011111001111111111111111110000000000001111111111111111111111
1111111111111111111111111111100001110001111111111100011111111111110001
1111000111111111111111111100000000011111111111111111111111111111111111
1111111111111111110001100011111111111100011111111111110001111100011111
1111111111101111111100011111111111111111111111111111111111111111101111
1111111000000011111111111100011111111111110001111110001111111111111100
0111111110001111111111111111111111111111111111111111000111111111100000
0111111111111100011111111111110001111110000111111111111100011111111000
1111111111111111111111111111111111111111000011111111000000111111111111
1100011111000111110001111111000011111111111000111111111100011111111111
1111111111111111111111111111000000000000000000111111111111111001111100
0111110001111111100000111111100000111111111100011111111111111111111111
1111111111111111110000000000001100011111111111111000111100011110001111
1111111000000000000001111111111100011111111111111111111111111111111111
1111111000000000111100001111111111111000111100011110001111111111100000
0000000111111111111110001111111111111111111111111111111111111111111111
1111111110001111111111111000011100111110001111111111100010000011111111
1111111110001111111111111111111111111111111111111111111111111111111100
0111111111111100011100111100011111111111100011111111111111111111111000
0111111111111111111111111111111111111111111111111111111100001111111111
1100001100111000011111111111000111111111111111111111111100011111111111
1111111111111111111111111111111111111111111110000111111111111000010011
0000111111111111000111111111111111111111111100011111111111111111111111
1111111111111111111111111111111111000111111111111100000000000111111111
1110001111111111111111111111111110001111111111111111111111111111111111
1111111111111111111111100011111111111110000000001111111111111000111111
1111111111111111111110001111111111111111111111111111111111111111111111
1111111111100001111111111111100000111111111111110000111111111111111111
1111111110001111111111111111111111111111111111111111111111111111111111
0001111111111111100011111111111111110001111111111111111111111111111100
0111111111111111111111111111111111111111111111111111111111100011111111
1111100011111111111111110001111111111111111111111111111100011111111111
1111111111111111111111111111111111111111111111100001111111111110001111
1111111111100011111111111111111111111111111110001111111111111111111111
1111111111111111111111111111111111110000111111111110001111111111111110
0011111111111111111111111111111110001111111111111111111111111111111111
1111111111111111111111111000111111111110001111111111111100001111111111
1111111111111111111110001111111111111111111111111111111111111111111111
1111111111111100011111111110001111111111111100011111111111111111111111
1111111111000111111111111111111111111111111111111111111111111111111111
1100001111111110001111111111111100011111111111111111111111111111111100
0111111111111111111111111111111111111111111111111111111111111000111111
1110001111111111111000111111111111111111111111111111111100001111111111
1111111111111111111111111111111111111111111111111100011111111000111111
1111111000111111111111111111111111111111111110001111111111111111111111
1111111111111111111111111111111111111100001111111000111111111111000111
1111111111111111111111111111111110001111111111111111111111111111111111
1111111111111111111111111110000111111001111111111111000111111111111111
1111111111111111111111000111111111111111111111111111111111111111111111
1111111111111111000111111001111111111111000111111111111111111111111111
1111111111000111111111111111111111111111111111111111111111111111111111
1111000011111001111111111110001111111111111111111111111111111111111100
0111111111111111111100000000000000000000000000000000000000000000000000
0000000000000000000000000000000000000000000000000000000000000000000000
0000000000000000000000000000000000000000000000000000000000000000000000
0000000000000000000000000000000000000000000000000000000000000000001111
1111111111111111111111111111111111111111111111111111111111111111111111
1111111111111111111111111111111111111111111111111111111111111111111111
1111111111111111111111111111111111111111111111111111111111111111111111
1111111111111111111111111111111111111111111111111111111111111111111111
1111111111111111111111111111111111111111111111111111111111111111111111
1111111111111111111111111111111111111111111111111111111111111111111111
1111111111111111111111111111111111111111111111111111111111111111111111
1111111111111111111111111111111111111111111111111111111111111111111111
1111111111111111111111111111111111111111111111111111111111111111111111
1111111111111111111111111111100000111011000001100001110111101100000110
0001110000011101111011011011000000110111111111111111111111111111111111
1111111111111111101111011011110111011110110111101101111101111011011110
1101110111011011011111110111111111111111111111111111111111111111111111
1111101111011011110111011111110111101101111101111011011110110110111101
1011000001110111111111111111111111111111111111111111111111111110000011
1011110111011111110000001100001101111011000001110001111101101100000011
0111111111111111111111111111111111111111111111111110000011101111011101
1111110000001100001101111011000011110000111111111111111011111111111111
1111111111111111111111111111111111111110111111101111011101111011011110
1101111101111011011101110111011111111111111011111111111111111111111111
1111111111111111111111111110111111101111011110000111011110110111111000
0111011110110111101101101100000111011111111111111111111111111111111111
1111111111111111111111111111111111111111111111111111111111111111111111
1111111111111111111111111111111111111111111111111111111111111111111111
1111111111111111111111111111111111111111111111111111111111111111111111
1111111111111111111111111111111111111111111111111111111111111111111111
1111111111111111111111111111111111111111111111111111111111111111111111
1111111111111111111111111111111111111111111111111111111111111111111111
1111111111111111111111111111111111111111111111111111111111111111111111
1111111111111111111111111111111111111111111111111111111111111111111111
1111111111111111111111111111111111111111111111111111111111111111111111
11